Coordinates
version=1
nRows=22
nColumns=24
inDegrees=yes

Units are S.I. units (second, meters, Newtons, ...)
Angles are in degrees.

endheader
time	pelvis_tilt	pelvis_list	pelvis_rotation	pelvis_tx	pelvis_ty	pelvis_tz	hip_flexion_r	hip_adduction_r	hip_rotation_r	knee_angle_r	ankle_angle_r	subtalar_angle_r	mtp_angle_r	hip_flexion_l	hip_adduction_l	hip_rotation_l	knee_angle_l	ankle_angle_l	subtalar_angle_l	mtp_angle_l	lumbar_extension	lumbar_bending	lumbar_rotation
      0.65800000	     -2.75299585	     -2.44954532	     -0.87593739	     -0.52993179	      1.06027462	      0.34805733	     14.92041998	      6.98475334	     -5.01019434	    -16.89582550	      5.96282603	     -3.42931631	      1.49736271	     21.34792023	     -4.36218907	     -1.24126769	    -69.41143123	      7.95270946	      5.88973069	      4.12226308	      4.17789513	      6.01371968	      0.41332133
      0.66216667	     -2.73606620	     -2.39092452	     -0.89574368	     -0.52475165	      1.06099366	      0.34824928	     14.53257524	      6.93178014	     -4.98037215	    -16.79096721	      6.16694739	     -3.30042856	      1.51154076	     21.89720344	     -4.24294697	     -1.05108806	    -69.15131196	      8.47401603	      5.73898243	      4.11008171	      4.15359169	      5.94030406	      0.50065657
      0.66633333	     -2.72646124	     -2.33617697	     -0.91233905	     -0.51957335	      1.06168535	      0.34845218	     14.14883728	      6.88561912	     -4.94003164	    -16.67574913	      6.36004626	     -3.18673753	      1.52457626	     22.43773068	     -4.12930099	     -0.87058114	    -68.81030935	      8.95290843	      5.56237304	      4.09551229	      4.12542758	      5.87240226	      0.58391285
      0.67050000	     -2.70433057	     -2.27729894	     -0.93128964	     -0.51437234	      1.06239056	      0.34865726	     13.74546267	      6.83702232	     -4.89219797	    -16.54977248	      6.54201280	     -3.09079397	      1.53628318	     22.93893095	     -4.01010005	     -0.70166821	    -68.37957448	      9.39316296	      5.36218645	      4.07889372	      4.09547254	      5.80033120	      0.66339788
      0.67466667	     -2.70963901	     -2.20151625	     -0.95795117	     -0.50924238	      1.06301950	      0.34879850	     13.37748391	      6.76466710	     -4.80118182	    -16.43188795	      6.63412831	     -3.05554579	      1.54113912	     23.45415254	     -3.86499560	     -0.53211147	    -67.85866047	      9.62151761	      5.24242248	      4.07048545	      4.03521366	      5.76718564	      0.69782728
      0.67883333	     -2.68154946	     -2.16040387	     -0.95817414	     -0.50394600	      1.06371053	      0.34906328	     12.94621855	      6.74571938	     -4.77308748	    -16.26503756	      6.85942544	     -2.98341452	      1.55164655	     23.90222049	     -3.76916231	     -0.38581879	    -67.27532220	     10.14689349	      4.89420417	      4.05079610	      4.05846462	      5.63376353	      0.79485946
      0.68300000	     -2.70496988	     -2.08850253	     -0.98255395	     -0.49881576	      1.06426650	      0.34918670	     12.59380651	      6.68010874	     -4.68119627	    -16.13266384	      6.93977619	     -2.96278104	      1.55499547	     24.39562016	     -3.62693652	     -0.23522696	    -66.60042808	     10.33047220	      4.76632980	      4.04170383	      3.97816223	      5.62288471	      0.81861820
      0.68716667	     -2.66268132	     -2.03826889	     -0.98063517	     -0.49347555	      1.06495216	      0.34942989	     12.13397540	      6.65201140	     -4.63353480	    -15.94351652	      7.16484605	     -2.91364716	      1.56368580	     24.77561732	     -3.51940711	     -0.11304204	    -65.84911685	     10.79329002	      4.32374360	      4.01545339	      4.03720110	      5.47441928	      0.92080884
      0.69133333	     -2.64736016	     -1.97298293	     -0.99951979	     -0.48825730	      1.06552976	      0.34956939	     11.72090446	      6.60021700	     -4.54985304	    -15.78285446	      7.34142811	     -2.87295858	      1.57136049	     25.17149240	     -3.38754831	      0.00056270	    -65.02306399	     11.08444889	      3.91878245	      3.98032676	      3.98714706	      5.40537849	      1.00180563
      0.69550000	     -2.62632779	     -1.91389770	     -1.00989141	     -0.48300846	      1.06610208	      0.34971296	     11.29223227	      6.55718455	     -4.46200305	    -15.60132468	      7.48457142	     -2.85624503	      1.57747151	     25.53586180	     -3.26250000	      0.11165159	    -64.11639371	     11.29114646	      3.52948897	      3.94003840	      3.95361544	      5.33624820	      1.08030541
      0.69966667	     -2.67858536	     -1.86893110	     -1.00918157	     -0.47786947	      1.06648054	      0.34978071	     10.95701106	      6.52451346	     -4.35984977	    -15.43890917	      7.54936372	     -2.86567956	      1.57904222	     25.97637773	     -3.14161977	      0.25912069	    -63.15896452	     11.41226582	      3.37096889	      3.92468468	      3.86874396	      5.33635692	      1.09925126
      0.70383333	     -2.63340758	     -1.80860730	     -1.00627895	     -0.47245632	      1.06706545	      0.34998544	     10.47206251	      6.49282812	     -4.26614781	    -15.20472642	      7.71878692	     -2.93007690	      1.58206559	     26.24767642	     -3.02264972	      0.33799696	    -62.09146154	     11.64789615	      2.83353968	      3.88120363	      3.98243012	      5.19518012	      1.19034207
      0.70800000	     -2.56801257	     -1.74396689	     -1.05373025	     -0.46731869	      1.06759690	      0.35010837	     10.00009098	      6.45126407	     -4.08839825	    -15.01870243	      7.84157112	     -2.98801003	      1.58710018	     26.49282426	     -2.90378622	      0.37018817	    -60.95539214	     11.55405652	      1.95815855	      3.73074860	      3.73413829	      5.14230392	      1.33945678
      0.71216667	     -2.58206002	     -1.70277801	     -1.02552265	     -0.46197510	      1.06797930	      0.35016232	      9.58643368	      6.43032833	     -4.00410457	    -14.79199912	      7.92735435	     -3.06167641	      1.58709594	     26.79733725	     -2.78480462	      0.49580437	    -59.77113336	     11.69666367	      1.74005042	      3.69329928	      3.80896568	      5.09730423	      1.38421160
      0.71633333	     -2.59596308	     -1.65514755	     -1.01531900	     -0.45661483	      1.06832547	      0.35026243	      9.16733670	      6.41222471	     -3.86126314	    -14.55770356	      8.03135971	     -3.19905477	      1.58557943	     27.06930163	     -2.67277774	      0.58013775	    -58.51082788	     11.79678976	      1.33721287	      3.63892839	      3.86511750	      5.01890739	      1.43387189
      0.72050000	     -2.58535052	     -1.59775046	     -1.05990541	     -0.45141054	      1.06865901	      0.35039192	      8.74114904	      6.39009831	     -3.63485608	    -14.34414128	      8.09458934	     -3.47306863	      1.57877890	     27.29495497	     -2.57076871	      0.59355446	    -57.17645893	     11.66246027	      0.56462629	      3.49987038	      3.71746341	      4.91003806	      1.51279866
      0.72466667	     -2.60850912	     -1.57755203	     -1.01080269	     -0.44603041	      1.06889340	      0.35040604	      8.32409436	      6.39928134	     -3.50582345	    -14.09043513	      8.15467510	     -3.57222656	      1.57587403	     27.53665823	     -2.47236500	      0.71063715	    -55.80373509	     11.69891544	      0.35398059	      3.45194856	      3.81737612	      4.93426192	      1.54505696
      0.72883333	     -2.63311111	     -1.54086971	     -0.99000092	     -0.44065661	      1.06909967	      0.35044027	      7.91064232	      6.39669652	     -3.32786820	    -13.83876599	      8.22995102	     -3.77368831	      1.57028144	     27.74644095	     -2.37003284	      0.78370103	    -54.35172002	     11.66802121	     -0.01974844	      3.38956523	      3.90154290	      4.88392734	      1.58437083
      0.73300000	     -2.64248032	     -1.48381156	     -1.04188958	     -0.43537003	      1.06928192	      0.35058384	      7.49464086	      6.38688018	     -3.02554141	    -13.61284833	      8.25056353	     -4.21075869	      1.55417535	     27.90846070	     -2.28326199	      0.75735460	    -52.82673545	     11.35531369	     -0.78662236	      3.24005798	      3.76036741	      4.72126627	      1.65073793
      0.73716667	     -2.65664036	     -1.46169593	     -1.00981827	     -0.43000495	      1.06940175	      0.35057945	      7.06828200	      6.40277344	     -2.82187699	    -13.35109254	      8.25766593	     -4.52436170	      1.53839734	     28.06155120	     -2.19589117	      0.81868899	    -51.25986975	     11.16882153	     -1.19794789	      3.10264169	      3.78026248	      4.70019477	      1.71155166
      0.74133333	     -2.69134369	     -1.43813266	     -1.00195367	     -0.42462843	      1.06944196	      0.35060805	      6.66574273	      6.42440063	     -2.55946846	    -13.09853596	      8.28491468	     -4.86321891	      1.52087994	     28.20899363	     -2.12295546	      0.84397721	    -49.64425873	     10.97022877	     -1.58216661	      2.96398642	      3.81379905	      4.66653502	      1.75645977
      0.74550000	     -2.74661274	     -1.44138940	     -0.94722026	     -0.41921259	      1.06938745	      0.35048948	      6.28593141	      6.46320129	     -2.38371447	    -12.84750951	      8.33081451	     -5.03010097	      1.51327432	     28.36231716	     -2.04979871	      0.92164651	    -48.00015581	     10.92185499	     -1.72990849	      2.91005941	      3.95276939	      4.77687980	      1.76575095
